<?xml version="1.0" encoding="UTF-8"?>
<svg id="Layer_2" data-name="Layer 2" xmlns="http://www.w3.org/2000/svg" viewBox="0 0 95.47 105.43">
  <defs>
    <style>
      .cls-1 {
        fill: #fff;
        stroke: #231f20;
        stroke-miterlimit: 10;
        stroke-width: 1.41px;
      }
    </style>
  </defs>
  <g id="stop">
    <g>
      <path class="cls-1" d="M47.73,5.61c-5.32,0-10.43.9-15.2,2.54l-3.89-6.74-14.93,25.85h29.85l-3.96-6.85c2.6-.64,5.32-.99,8.12-.99,18.69,0,33.85,15.15,33.85,33.85,0,2.87-.36,5.65-1.03,8.31l10.16,10.16c2.6-5.84,4.05-12.29,4.05-19.09,0-25.97-21.06-47.03-47.03-47.03Z"/>
      <path class="cls-1" d="M56.4,85.96c-2.77.73-5.67,1.15-8.66,1.15-18.69,0-33.85-15.15-33.85-33.85,0-3.22.46-6.33,1.3-9.28l-10.43-10.43c-2.6,5.84-4.05,12.29-4.05,19.09,0,25.97,21.06,47.03,47.03,47.03,5.3,0,10.38-.89,15.13-2.51l3.96,6.86,14.93-25.85h-29.85l4.5,7.79Z"/>
    </g>
  </g>
</svg>