<?xml version="1.0" encoding="UTF-8"?>
<svg id="Layer_2" data-name="Layer 2" xmlns="http://www.w3.org/2000/svg" viewBox="0 0 196.15 52.45">
  <defs>
    <style>
      .cls-1 {
        stroke-width: .21px;
      }

      .cls-1, .cls-2, .cls-3 {
        fill: #808285;
        stroke: #808285;
        stroke-linecap: round;
        stroke-linejoin: round;
      }

      .cls-2 {
        stroke-width: .48px;
      }

      .cls-3 {
        stroke-width: .39px;
      }

      .cls-4 {
        stroke-width: 1.1px;
      }

      .cls-4, .cls-5, .cls-6 {
        stroke-miterlimit: 10;
      }

      .cls-4, .cls-6 {
        fill: #190a0c;
        stroke: #231f20;
      }

      .cls-5 {
        fill: #3dbded;
        stroke: #41bded;
      }

      .cls-6 {
        stroke-width: .05px;
      }
    </style>
  </defs>
  <g id="Vinyl3">
    <ellipse class="cls-4" cx="98.07" cy="26.22" rx="97.52" ry="25.67"/>
    <ellipse class="cls-5" cx="98.07" cy="25.11" rx="29.39" ry="7.74"/>
    <ellipse class="cls-6" cx="98.07" cy="25.11" rx="4.36" ry="1.15"/>
    <path class="cls-2" d="M98.24,4.05c17.97,0,33.61.56,41.76,1.39-9.56-1.34-29.05-3.27-41.76-3.24-13-.03-31.97,1.78-42.1,3.27,8.06-.85,23.89-1.43,42.1-1.43Z"/>
    <path class="cls-3" d="M98.21,8.38c14.18,0,26.52.46,32.95,1.14-7.55-1.09-22.92-2.66-32.95-2.64-10.26-.03-25.23,1.45-33.22,2.67,6.36-.69,18.85-1.16,33.22-1.16Z"/>
    <path class="cls-1" d="M98.14,11.58c7.41,0,13.87.25,17.23.61-3.95-.58-11.99-1.43-17.23-1.41-5.36-.01-13.19.78-17.37,1.43,3.32-.37,9.86-.62,17.37-.62Z"/>
    <path class="cls-2" d="M98.24,46.16c17.97,0,33.61-.56,41.76-1.39-9.56,1.34-29.05,3.27-41.76,3.24-13,.03-31.97-1.78-42.1-3.27,8.06.85,23.89,1.43,42.1,1.43Z"/>
    <path class="cls-3" d="M98.21,41.83c14.18,0,26.52-.46,32.95-1.14-7.55,1.09-22.92,2.66-32.95,2.64-10.26.03-25.23-1.45-33.22-2.67,6.36.69,18.85,1.16,33.22,1.16Z"/>
    <path class="cls-1" d="M98.14,38.63c7.41,0,13.87-.25,17.23-.61-3.95.58-11.99,1.43-17.23,1.41-5.36.01-13.19-.78-17.37-1.43,3.32.37,9.86.62,17.37.62Z"/>
  </g>
</svg>